<svg width="39" height="33" viewBox="0 0 39 33" fill="none" xmlns="http://www.w3.org/2000/svg">
<path d="M17.5761 25.0001H28.9041V24.2001H25.3841V16.0001H21.0961V24.2001H17.5761V25.0001Z" fill="url(#paint0_linear_141_33)"/>
<path d="M17.1602 16.0001L14.3694 25.0001H13.0366L10.179 16.0001H14.6116L15.1441 17.7681H15.2721L15.8179 16.0001H17.1602Z" fill="url(#paint1_linear_141_33)"/>
<path d="M1.38405 25.0001H9.67206V24.2001H6.15206V16.0001H4.90406V24.2001H1.38405V25.0001Z" fill="url(#paint2_linear_141_33)"/>
<path d="M5.98116 11.0001H4.73316V1.17207H1.21316V0.37207H9.88516L13.0856 11.0001H8.57936L6.10916 3.22007H5.98116V11.0001Z" fill="url(#paint3_linear_141_33)"/>
<path d="M20.9252 11.0001V3.22007H20.7972L18.3847 11.0001H17.0362L20.3172 0.37207H28.7332V1.17207H25.2132V11.0001H20.9252Z" fill="url(#paint4_linear_141_33)"/>
<path d="M10.669 16.0008L8.99773 11.0024L12.7477 10.9989L14.0024 15.9977L10.669 16.0008Z" fill="url(#paint5_linear_141_33)"/>
<path d="M5.00005 16.0001V11.0001H6.00005V16.0001H5.00005Z" fill="url(#paint6_linear_141_33)"/>
<path d="M15.8706 15.9443L17.1309 11.0035L18.1295 11.0558L16.8692 15.9966L15.8706 15.9443Z" fill="url(#paint7_linear_141_33)"/>
<path d="M23.2421 15.0421H22.8521C22.6241 15.0421 22.4561 14.9981 22.3481 14.9101C22.2441 14.8181 22.1921 14.6581 22.1921 14.4301V13.9381C22.1921 13.6941 22.2461 13.5281 22.3541 13.4401C22.4621 13.3481 22.6421 13.3021 22.8941 13.3021H23.7881V13.6501H22.7201C22.6801 13.6501 22.6601 13.6701 22.6601 13.7101V14.5981C22.6601 14.6341 22.6801 14.6521 22.7201 14.6521H23.7281V12.5101C23.7281 12.4701 23.7101 12.4501 23.6741 12.4501L22.3541 12.4561V12.0601L23.4941 12.0541C23.7461 12.0541 23.9281 12.1021 24.0401 12.1981C24.1521 12.2901 24.2081 12.4621 24.2081 12.7141V15.0001H23.7881L23.7281 14.6521L23.7641 14.4901C23.7641 14.6781 23.7241 14.8181 23.6441 14.9101C23.5681 14.9981 23.4341 15.0421 23.2421 15.0421Z" fill="url(#paint8_linear_141_33)"/>
<path d="M25.9541 15.0241H24.7421V14.6341H26.0921C26.1281 14.6341 26.1461 14.6161 26.1461 14.5801V13.7461C26.1461 13.7101 26.1281 13.6921 26.0921 13.6921H25.4021C25.1501 13.6921 24.9681 13.6461 24.8561 13.5541C24.7481 13.4621 24.6941 13.2961 24.6941 13.0561V12.6721C24.6941 12.4241 24.7501 12.2541 24.8621 12.1621C24.9781 12.0661 25.1601 12.0181 25.4081 12.0181L26.4761 12.0241V12.4201L25.2341 12.4141C25.1941 12.4141 25.1741 12.4341 25.1741 12.4741V13.2601C25.1741 13.2961 25.1941 13.3141 25.2341 13.3141H25.9121C26.1681 13.3141 26.3501 13.3601 26.4581 13.4521C26.5661 13.5401 26.6201 13.7061 26.6201 13.9501V14.4061C26.6201 14.6381 26.5681 14.8001 26.4641 14.8921C26.3601 14.9801 26.1901 15.0241 25.9541 15.0241Z" fill="url(#paint9_linear_141_33)"/>
<path d="M28.0599 12.0181H28.4739C28.7059 12.0181 28.8739 12.0621 28.9779 12.1501C29.0819 12.2381 29.1339 12.3981 29.1339 12.6301V15.0001H28.6599V12.4621C28.6599 12.4261 28.6419 12.4081 28.6059 12.4081H27.6279C27.5879 12.4081 27.5679 12.4261 27.5679 12.4621L27.5739 15.0001H27.0999V12.0601H27.5139L27.5679 12.4081L27.5139 12.5701C27.5139 12.3821 27.5559 12.2441 27.6399 12.1561C27.7279 12.0641 27.8679 12.0181 28.0599 12.0181Z" fill="url(#paint10_linear_141_33)"/>
<path d="M30.6717 15.0421H30.2817C30.0537 15.0421 29.8857 14.9981 29.7777 14.9101C29.6737 14.8181 29.6217 14.6581 29.6217 14.4301V13.9381C29.6217 13.6941 29.6757 13.5281 29.7837 13.4401C29.8917 13.3481 30.0717 13.3021 30.3237 13.3021H31.2177V13.6501H30.1497C30.1097 13.6501 30.0897 13.6701 30.0897 13.7101V14.5981C30.0897 14.6341 30.1097 14.6521 30.1497 14.6521H31.1577V12.5101C31.1577 12.4701 31.1397 12.4501 31.1037 12.4501L29.7837 12.4561V12.0601L30.9237 12.0541C31.1757 12.0541 31.3577 12.1021 31.4697 12.1981C31.5817 12.2901 31.6377 12.4621 31.6377 12.7141V15.0001H31.2177L31.1577 14.6521L31.1937 14.4901C31.1937 14.6781 31.1537 14.8181 31.0737 14.9101C30.9977 14.9981 30.8637 15.0421 30.6717 15.0421Z" fill="url(#paint11_linear_141_33)"/>
<path d="M33.7678 14.5981V12.3841L33.8278 12.4441L32.7358 12.4321C32.6958 12.4321 32.6758 12.4521 32.6758 12.4921V14.5981C32.6758 14.6341 32.6958 14.6521 32.7358 14.6521H33.7138C33.7498 14.6521 33.7678 14.6341 33.7678 14.5981ZM33.7138 15.7861C33.7498 15.7861 33.7678 15.7681 33.7678 15.7321V14.6521L33.8038 14.4901C33.8038 14.6781 33.7638 14.8181 33.6838 14.9101C33.6038 14.9981 33.4698 15.0421 33.2818 15.0421H32.8678C32.6398 15.0421 32.4718 14.9981 32.3638 14.9101C32.2598 14.8181 32.2078 14.6581 32.2078 14.4301V12.6781C32.2078 12.4341 32.2618 12.2661 32.3698 12.1741C32.4778 12.0821 32.6578 12.0381 32.9098 12.0421L34.2418 12.0601V15.5161C34.2418 15.7601 34.1838 15.9321 34.0678 16.0321C33.9518 16.1321 33.7618 16.1821 33.4978 16.1821H32.3098V15.7861H33.7138Z" fill="url(#paint12_linear_141_33)"/>
<path d="M35.7518 15.0421H35.3618C35.1338 15.0421 34.9658 14.9981 34.8578 14.9101C34.7538 14.8181 34.7018 14.6581 34.7018 14.4301V13.9381C34.7018 13.6941 34.7558 13.5281 34.8638 13.4401C34.9718 13.3481 35.1518 13.3021 35.4038 13.3021H36.2978V13.6501H35.2298C35.1898 13.6501 35.1698 13.6701 35.1698 13.7101V14.5981C35.1698 14.6341 35.1898 14.6521 35.2298 14.6521H36.2378V12.5101C36.2378 12.4701 36.2198 12.4501 36.1838 12.4501L34.8638 12.4561V12.0601L36.0038 12.0541C36.2558 12.0541 36.4378 12.1021 36.5498 12.1981C36.6618 12.2901 36.7178 12.4621 36.7178 12.7141V15.0001H36.2978L36.2378 14.6521L36.2738 14.4901C36.2738 14.6781 36.2338 14.8181 36.1538 14.9101C36.0778 14.9981 35.9438 15.0421 35.7518 15.0421Z" fill="url(#paint13_linear_141_33)"/>
<path d="M3.21005 32.0021C3.08205 32.0021 2.96805 31.9621 2.86805 31.8821C2.77205 31.8021 2.72405 31.6621 2.72405 31.4621C2.72405 31.3341 2.75405 31.1761 2.81405 30.9881C2.87805 30.8001 2.95805 30.6061 3.05405 30.4061C2.88605 30.5581 2.70205 30.7041 2.50205 30.8441C2.30205 30.9801 2.09205 31.0881 1.87205 31.1681C1.65205 31.2521 1.42805 31.2881 1.20005 31.2761C0.976055 31.2641 0.814055 31.1881 0.714055 31.0481C0.618055 30.9081 0.570055 30.7401 0.570055 30.5441C0.574055 30.3441 0.614055 30.1381 0.690055 29.9261C0.770055 29.7101 0.872055 29.5021 0.996055 29.3021C1.12005 29.1021 1.24605 28.9261 1.37405 28.7741C1.08605 28.6461 0.856055 28.4921 0.684055 28.3121C0.608055 28.2321 0.550055 28.1481 0.510055 28.0601C0.474055 27.9721 0.456055 27.8881 0.456055 27.8081C0.456055 27.6841 0.498055 27.5781 0.582055 27.4901C0.666055 27.4021 0.792055 27.3581 0.960055 27.3581C1.09205 27.3581 1.24205 27.3901 1.41005 27.4541C1.46205 27.4701 1.48805 27.5001 1.48805 27.5441C1.48805 27.5681 1.47805 27.5901 1.45805 27.6101C1.44205 27.6301 1.42005 27.6401 1.39205 27.6401C1.36805 27.6401 1.35005 27.6361 1.33805 27.6281C1.19805 27.5761 1.07805 27.5501 0.978055 27.5501C0.878055 27.5501 0.802055 27.5741 0.750055 27.6221C0.702055 27.6661 0.678055 27.7221 0.678055 27.7901C0.678055 27.9101 0.748055 28.0481 0.888055 28.2041C1.02805 28.3601 1.24005 28.4941 1.52405 28.6061C1.72805 28.3941 1.95805 28.2001 2.21405 28.0241C2.47005 27.8481 2.74805 27.7081 3.04805 27.6041C3.34805 27.5001 3.66405 27.4481 3.99605 27.4481C4.02805 27.4481 4.05805 27.4481 4.08606 27.4481C4.11805 27.4481 4.14805 27.4501 4.17605 27.4541C4.52006 27.4741 4.77405 27.5541 4.93805 27.6941C5.10605 27.8301 5.19005 27.9841 5.19005 28.1561C5.19005 28.3281 5.10605 28.5001 4.93805 28.6721C4.77005 28.8401 4.52605 28.9601 4.20605 29.0321C4.15405 29.0441 4.09805 29.0561 4.03805 29.0681C4.08205 29.0841 4.10405 29.1181 4.10405 29.1701C4.10405 29.1941 4.09805 29.2181 4.08606 29.2421C4.06205 29.2701 4.01805 29.3241 3.95405 29.4041C3.89405 29.4841 3.80605 29.5941 3.69005 29.7341C3.67005 29.7541 3.65205 29.7761 3.63605 29.8001C3.52005 29.9801 3.40805 30.1761 3.30005 30.3881C3.19605 30.5961 3.11005 30.7981 3.04205 30.9941C2.97405 31.1861 2.94005 31.3441 2.94005 31.4681C2.94005 31.5921 2.96605 31.6781 3.01805 31.7261C3.07405 31.7781 3.14005 31.8041 3.21605 31.8041C3.30805 31.8041 3.40205 31.7781 3.49805 31.7261C3.59805 31.6741 3.67605 31.6161 3.73205 31.5521C3.75605 31.5241 3.78205 31.5101 3.81006 31.5101C3.83805 31.5101 3.86205 31.5201 3.88205 31.5401C3.90605 31.5601 3.91806 31.5841 3.91806 31.6121C3.91806 31.6361 3.91005 31.6581 3.89405 31.6781C3.81405 31.7741 3.71005 31.8521 3.58205 31.9121C3.45805 31.9721 3.33405 32.0021 3.21005 32.0021ZM1.76405 28.6901C1.87605 28.7181 2.02005 28.7501 2.19605 28.7861C2.37605 28.8181 2.57205 28.8461 2.78405 28.8701C3.00005 28.8941 3.21605 28.9061 3.43205 28.9061C3.69605 28.9061 3.93605 28.8821 4.15205 28.8341C4.43605 28.7661 4.64205 28.6741 4.77005 28.5581C4.90206 28.4421 4.96806 28.3221 4.96806 28.1981C4.96806 28.0701 4.89805 27.9541 4.75805 27.8501C4.61805 27.7461 4.41805 27.6861 4.15805 27.6701C4.12606 27.6661 4.09405 27.6641 4.06205 27.6641C4.03005 27.6641 3.99805 27.6641 3.96605 27.6641C3.53405 27.6641 3.12805 27.7601 2.74805 27.9521C2.36805 28.1441 2.03405 28.3881 1.74605 28.6841L1.76405 28.6901ZM0.786055 30.5441C0.786055 30.8921 0.952055 31.0661 1.28405 31.0661C1.49605 31.0661 1.70605 31.0201 1.91405 30.9281C2.12605 30.8361 2.32805 30.7181 2.52005 30.5741C2.71205 30.4261 2.88805 30.2721 3.04805 30.1121C3.21205 29.9521 3.35205 29.8021 3.46805 29.6621C3.54405 29.5421 3.61805 29.4341 3.69005 29.3381C3.76605 29.2381 3.83605 29.1581 3.90005 29.0981C3.90805 29.0901 3.91405 29.0841 3.91806 29.0801C3.76205 29.1001 3.58805 29.1101 3.39605 29.1101C3.09605 29.1101 2.78205 29.0881 2.45405 29.0441C2.12605 28.9961 1.83805 28.9321 1.59005 28.8521C1.45805 29.0001 1.34005 29.1561 1.23605 29.3201C1.09605 29.5441 0.986055 29.7641 0.906055 29.9801C0.826055 30.1921 0.786055 30.3801 0.786055 30.5441Z" fill="url(#paint14_linear_141_33)"/>
<path d="M4.43012 31.0301C4.31812 31.0301 4.23412 30.9981 4.17812 30.9341C4.12612 30.8661 4.10012 30.7821 4.10012 30.6821C4.10012 30.5701 4.13212 30.4401 4.19612 30.2921C4.26412 30.1401 4.35212 29.9841 4.46012 29.8241C4.56812 29.6641 4.68612 29.5161 4.81412 29.3801C4.94612 29.2401 5.07812 29.1281 5.21012 29.0441C5.34212 28.9561 5.46412 28.9121 5.57612 28.9121C5.65612 28.9121 5.73412 28.9261 5.81012 28.9541C5.89012 28.9781 5.95012 29.0301 5.99012 29.1101C6.09012 28.8781 6.21012 28.6481 6.35012 28.4201C6.49012 28.1881 6.63412 27.9801 6.78212 27.7961C6.93412 27.6121 7.07812 27.4741 7.21412 27.3821C7.31412 27.3141 7.40412 27.2801 7.48412 27.2801C7.54812 27.2801 7.59812 27.3021 7.63412 27.3461C7.67412 27.3861 7.69412 27.4481 7.69412 27.5321C7.69412 27.6921 7.65012 27.8621 7.56212 28.0421C7.47812 28.2221 7.36612 28.4021 7.22612 28.5821C7.08612 28.7621 6.93412 28.9381 6.77012 29.1101C6.61012 29.2781 6.45412 29.4361 6.30212 29.5841C6.15012 29.7281 6.01812 29.8541 5.90612 29.9621C5.84212 30.0701 5.78012 30.1961 5.72012 30.3401C5.66412 30.4801 5.63612 30.5981 5.63612 30.6941C5.63612 30.8021 5.67812 30.8561 5.76212 30.8561C5.83012 30.8561 5.93212 30.8241 6.06812 30.7601C6.20812 30.6921 6.34412 30.6001 6.47612 30.4841C6.55612 30.4161 6.63012 30.3441 6.69812 30.2681C6.76612 30.1921 6.83012 30.1221 6.89012 30.0581C6.90612 30.0381 6.92612 30.0281 6.95012 30.0281C6.97012 30.0281 6.98812 30.0401 7.00412 30.0641C7.02412 30.0841 7.03412 30.1101 7.03412 30.1421C7.03412 30.1781 7.02412 30.2081 7.00412 30.2321C6.94412 30.3161 6.86012 30.4101 6.75212 30.5141C6.64812 30.6141 6.55612 30.6941 6.47612 30.7541C6.32412 30.8661 6.16012 30.9501 5.98412 31.0061C5.87612 31.0421 5.78012 31.0601 5.69612 31.0601C5.47612 31.0601 5.36612 30.9501 5.36612 30.7301C5.36612 30.6381 5.38612 30.5341 5.42612 30.4181C5.42612 30.4141 5.42812 30.4101 5.43212 30.4061C5.30812 30.5101 5.18012 30.6101 5.04812 30.7061C4.92012 30.8021 4.80012 30.8801 4.68812 30.9401C4.57612 31.0001 4.49012 31.0301 4.43012 31.0301ZM6.00212 29.5541C6.04212 29.5221 6.11212 29.4581 6.21212 29.3621C6.31212 29.2661 6.42612 29.1521 6.55412 29.0201C6.68612 28.8841 6.81612 28.7381 6.94412 28.5821C7.07212 28.4261 7.18412 28.2701 7.28012 28.1141C7.37612 27.9581 7.44212 27.8121 7.47812 27.6761C7.48212 27.6601 7.48412 27.6401 7.48412 27.6161C7.48412 27.5561 7.46012 27.5261 7.41212 27.5261C7.35212 27.5261 7.28212 27.5661 7.20212 27.6461C7.04612 27.7981 6.89412 27.9821 6.74612 28.1981C6.60212 28.4101 6.46612 28.6341 6.33812 28.8701C6.21412 29.1021 6.10212 29.3301 6.00212 29.5541ZM4.41212 30.8321C4.46812 30.8321 4.54012 30.8061 4.62812 30.7541C4.72012 30.7021 4.81812 30.6361 4.92212 30.5561C5.02612 30.4761 5.12812 30.3921 5.22812 30.3041C5.33212 30.2161 5.42412 30.1341 5.50412 30.0581C5.58412 29.9821 5.64412 29.9241 5.68412 29.8841L5.86412 29.3741C5.83612 29.2701 5.79412 29.2021 5.73812 29.1701C5.68212 29.1381 5.62812 29.1221 5.57612 29.1221C5.49612 29.1221 5.40212 29.1621 5.29412 29.2421C5.18612 29.3221 5.07612 29.4241 4.96412 29.5481C4.85212 29.6721 4.74612 29.8061 4.64612 29.9501C4.55012 30.0901 4.47212 30.2261 4.41212 30.3581C4.35212 30.4861 4.32212 30.5921 4.32212 30.6761C4.32212 30.7161 4.32812 30.7521 4.34012 30.7841C4.35612 30.8161 4.38012 30.8321 4.41212 30.8321Z" fill="url(#paint15_linear_141_33)"/>
<path d="M6.81066 31.1441C6.77866 31.1441 6.74866 31.1321 6.72066 31.1081C6.69266 31.0881 6.67866 31.0641 6.67866 31.0361C6.67866 31.0281 6.67866 31.0201 6.67866 31.0121C6.68266 31.0041 6.68666 30.9961 6.69066 30.9881C6.77066 30.8161 6.84666 30.6681 6.91866 30.5441C6.99066 30.4201 7.04866 30.3141 7.09266 30.2261C7.17266 30.0741 7.22866 29.9481 7.26066 29.8481C7.29666 29.7481 7.31466 29.6561 7.31466 29.5721C7.31466 29.5441 7.31066 29.5181 7.30266 29.4941C7.29866 29.4701 7.29666 29.4441 7.29666 29.4161C7.29666 29.3601 7.31266 29.3161 7.34466 29.2841C7.38066 29.2521 7.41866 29.2361 7.45866 29.2361C7.51466 29.2361 7.55066 29.2681 7.56666 29.3321C7.57866 29.3801 7.58466 29.4341 7.58466 29.4941C7.58466 29.5181 7.58266 29.5441 7.57866 29.5721C7.57866 29.6001 7.57666 29.6281 7.57266 29.6561C7.62866 29.5801 7.68066 29.5121 7.72866 29.4521C7.77666 29.3921 7.81866 29.3421 7.85466 29.3021C7.93066 29.2221 8.01466 29.1561 8.10666 29.1041C8.20266 29.0521 8.29066 29.0261 8.37066 29.0261C8.45066 29.0261 8.51666 29.0561 8.56866 29.1161C8.62066 29.1761 8.64666 29.2781 8.64666 29.4221C8.64666 29.5221 8.63666 29.6281 8.61666 29.7401C8.59666 29.8521 8.57066 29.9661 8.53866 30.0821C8.66266 29.9461 8.78866 29.8301 8.91666 29.7341C9.04466 29.6381 9.16066 29.5601 9.26466 29.5001C9.41666 29.4161 9.52666 29.3741 9.59466 29.3741C9.67066 29.3741 9.70866 29.4181 9.70866 29.5061C9.70866 29.5421 9.70266 29.5881 9.69066 29.6441C9.67866 29.7001 9.65666 29.7641 9.62466 29.8361L9.38466 30.4241C9.36866 30.4681 9.35266 30.5121 9.33666 30.5561C9.32466 30.6001 9.31866 30.6381 9.31866 30.6701C9.31866 30.7261 9.34266 30.7541 9.39066 30.7541C9.43066 30.7541 9.49066 30.7341 9.57066 30.6941C9.66266 30.6421 9.75066 30.5761 9.83466 30.4961C9.91866 30.4121 9.98866 30.3401 10.0447 30.2801C10.0487 30.2761 10.0667 30.2561 10.0987 30.2201C10.1347 30.1841 10.1687 30.1481 10.2007 30.1121C10.2367 30.0761 10.2567 30.0581 10.2607 30.0581C10.2767 30.0381 10.2967 30.0281 10.3207 30.0281C10.3407 30.0281 10.3587 30.0401 10.3747 30.0641C10.3947 30.0841 10.4047 30.1101 10.4047 30.1421C10.4047 30.1781 10.3947 30.2081 10.3747 30.2321C10.3107 30.3161 10.2267 30.4081 10.1227 30.5081C10.0227 30.6081 9.93266 30.6901 9.85266 30.7541C9.76866 30.8181 9.67466 30.8801 9.57066 30.9401C9.46666 31.0001 9.37266 31.0301 9.28866 31.0301C9.21666 31.0301 9.15866 31.0121 9.11466 30.9761C9.07066 30.9361 9.05266 30.8601 9.06066 30.7481C9.06866 30.6841 9.09066 30.6021 9.12666 30.5021C9.16266 30.3981 9.20266 30.2901 9.24666 30.1781C9.29466 30.0661 9.33866 29.9601 9.37866 29.8601C9.41866 29.7601 9.44666 29.6801 9.46266 29.6201C9.31466 29.7041 9.14466 29.8201 8.95266 29.9681C8.76066 30.1121 8.57066 30.3041 8.38266 30.5441C8.36266 30.5961 8.34066 30.6481 8.31666 30.7001C8.29666 30.7481 8.27466 30.7981 8.25066 30.8501C8.23466 30.8901 8.20266 30.9101 8.15466 30.9101C8.12266 30.9101 8.09466 30.8961 8.07066 30.8681C8.04666 30.8401 8.04266 30.8061 8.05866 30.7661C8.16666 30.5221 8.25266 30.2861 8.31666 30.0581C8.38066 29.8301 8.41266 29.6241 8.41266 29.4401C8.41266 29.3081 8.37866 29.2421 8.31066 29.2421C8.27066 29.2421 8.22266 29.2621 8.16666 29.3021C8.11466 29.3421 8.06266 29.3901 8.01066 29.4461C7.94666 29.5141 7.85466 29.6201 7.73466 29.7641C7.61866 29.9041 7.50066 30.0541 7.38066 30.2141L7.35666 30.2621C7.30466 30.3701 7.24466 30.4841 7.17666 30.6041C7.10866 30.7201 7.03666 30.8641 6.96066 31.0361C6.94466 31.0761 6.92266 31.1041 6.89466 31.1201C6.86666 31.1361 6.83866 31.1441 6.81066 31.1441Z" fill="url(#paint16_linear_141_33)"/>
<path d="M11.4095 29.1341C11.3615 29.1341 11.3175 29.1181 11.2775 29.0861C11.2415 29.0501 11.2235 29.0061 11.2235 28.9541C11.2235 28.8981 11.2415 28.8521 11.2775 28.8161C11.3135 28.7801 11.3575 28.7621 11.4095 28.7621C11.4655 28.7621 11.5115 28.7801 11.5475 28.8161C11.5835 28.8521 11.6015 28.8981 11.6015 28.9541C11.6015 29.0061 11.5815 29.0501 11.5415 29.0861C11.5055 29.1181 11.4615 29.1341 11.4095 29.1341ZM10.5215 30.9341C10.4695 30.9341 10.4275 30.9201 10.3955 30.8921C10.3635 30.8601 10.3475 30.8101 10.3475 30.7421C10.3475 30.6581 10.3675 30.5561 10.4075 30.4361C10.4475 30.3121 10.4995 30.1861 10.5635 30.0581C10.6275 29.9261 10.6955 29.8061 10.7675 29.6981C10.8435 29.5861 10.9155 29.4981 10.9835 29.4341C11.0115 29.4061 11.0455 29.3921 11.0855 29.3921C11.1175 29.3921 11.1455 29.4001 11.1695 29.4161C11.1935 29.4321 11.2055 29.4521 11.2055 29.4761C11.2055 29.4961 11.1955 29.5161 11.1755 29.5361C11.1475 29.5641 11.1115 29.6101 11.0675 29.6741C11.0275 29.7341 10.9875 29.7981 10.9475 29.8661C10.9075 29.9301 10.8775 29.9841 10.8575 30.0281C10.8215 30.1041 10.7815 30.1901 10.7375 30.2861C10.6935 30.3821 10.6615 30.4601 10.6415 30.5201C10.6295 30.5601 10.6235 30.5901 10.6235 30.6101C10.6235 30.6541 10.6395 30.6761 10.6715 30.6761C10.6995 30.6761 10.7315 30.6641 10.7675 30.6401C10.8035 30.6121 10.8355 30.5881 10.8635 30.5681C10.9635 30.4881 11.0555 30.4041 11.1395 30.3161C11.2275 30.2241 11.3075 30.1381 11.3795 30.0581C11.3955 30.0381 11.4155 30.0281 11.4395 30.0281C11.4595 30.0281 11.4775 30.0401 11.4935 30.0641C11.5135 30.0841 11.5235 30.1101 11.5235 30.1421C11.5235 30.1781 11.5135 30.2081 11.4935 30.2321C11.4335 30.3161 11.3495 30.4101 11.2415 30.5141C11.1375 30.6141 11.0455 30.6941 10.9655 30.7541C10.9135 30.7941 10.8435 30.8341 10.7555 30.8741C10.6715 30.9141 10.5935 30.9341 10.5215 30.9341Z" fill="url(#paint17_linear_141_33)"/>
<path d="M11.2809 31.1381C11.2529 31.1381 11.2269 31.1281 11.2029 31.1081C11.1789 31.0881 11.1669 31.0641 11.1669 31.0361C11.1669 31.0281 11.1709 31.0121 11.1789 30.9881C11.2589 30.8161 11.3369 30.6601 11.4129 30.5201C11.4929 30.3761 11.5749 30.2361 11.6589 30.1001C11.6949 30.0441 11.7349 29.9721 11.7789 29.8841C11.8269 29.7921 11.8729 29.6941 11.9169 29.5901C11.9609 29.4821 11.9969 29.3801 12.0249 29.2841C12.0569 29.1881 12.0729 29.1101 12.0729 29.0501C12.0729 29.0181 12.0709 28.9961 12.0669 28.9841C12.0629 28.9801 12.0609 28.9721 12.0609 28.9601C12.0609 28.9281 12.0749 28.9021 12.1029 28.8821C12.1349 28.8581 12.1649 28.8461 12.1929 28.8461C12.2249 28.8461 12.2549 28.8621 12.2829 28.8941C12.3109 28.9221 12.3249 28.9721 12.3249 29.0441C12.3249 29.1041 12.3109 29.1841 12.2829 29.2841C12.2589 29.3801 12.2169 29.4961 12.1569 29.6321C12.1249 29.7001 12.0949 29.7641 12.0669 29.8241C12.0389 29.8801 12.0109 29.9341 11.9829 29.9861C12.1389 29.8221 12.2989 29.6761 12.4629 29.5481C12.6269 29.4161 12.7729 29.3121 12.9009 29.2361C13.0289 29.1601 13.1149 29.1221 13.1589 29.1221C13.2069 29.1221 13.2409 29.1361 13.2609 29.1641C13.2809 29.1921 13.2909 29.2241 13.2909 29.2601C13.2909 29.3121 13.2749 29.3721 13.2429 29.4401C13.2149 29.5041 13.1849 29.5621 13.1529 29.6141C13.1209 29.6661 13.0989 29.7021 13.0869 29.7221C13.0429 29.7901 12.9829 29.8921 12.9069 30.0281C12.8309 30.1641 12.7669 30.2961 12.7149 30.4241C12.6989 30.4681 12.6829 30.5141 12.6669 30.5621C12.6549 30.6061 12.6489 30.6441 12.6489 30.6761C12.6489 30.7281 12.6709 30.7541 12.7149 30.7541C12.7549 30.7541 12.8129 30.7341 12.8889 30.6941C12.9849 30.6421 13.0729 30.5761 13.1529 30.4961C13.2369 30.4121 13.3089 30.3401 13.3689 30.2801C13.3729 30.2761 13.3909 30.2561 13.4229 30.2201C13.4589 30.1841 13.4929 30.1481 13.5249 30.1121C13.5609 30.0761 13.5789 30.0581 13.5789 30.0581C13.5949 30.0381 13.6149 30.0281 13.6389 30.0281C13.6589 30.0281 13.6769 30.0401 13.6929 30.0641C13.7129 30.0841 13.7229 30.1101 13.7229 30.1421C13.7229 30.1781 13.7129 30.2081 13.6929 30.2321C13.6329 30.3161 13.5509 30.4081 13.4469 30.5081C13.3429 30.6081 13.2509 30.6901 13.1709 30.7541C13.0869 30.8181 13.0009 30.8701 12.9129 30.9101C12.8289 30.9461 12.7449 30.9641 12.6609 30.9641C12.5889 30.9641 12.5289 30.9501 12.4809 30.9221C12.4329 30.8941 12.4089 30.8201 12.4089 30.7001C12.4089 30.5481 12.4469 30.3981 12.5229 30.2501C12.6029 30.1021 12.6909 29.9561 12.7869 29.8121C12.8869 29.6681 12.9689 29.5321 13.0329 29.4041C12.9329 29.4641 12.7989 29.5561 12.6309 29.6801C12.4669 29.8041 12.2929 29.9501 12.1089 30.1181C11.9289 30.2821 11.7649 30.4621 11.6169 30.6581C11.5889 30.7101 11.5589 30.7661 11.5269 30.8261C11.4949 30.8861 11.4629 30.9521 11.4309 31.0241C11.3949 31.1001 11.3449 31.1381 11.2809 31.1381Z" fill="url(#paint18_linear_141_33)"/>
<path d="M18.4771 31.3421C18.1891 31.3421 17.8791 31.2941 17.5471 31.1981C17.4311 31.1621 17.3171 31.1221 17.2051 31.0781C17.0931 31.0341 16.9811 30.9881 16.8691 30.9401C16.7251 31.0481 16.5491 31.1381 16.3411 31.2101C16.1331 31.2821 15.9351 31.3181 15.7471 31.3181C15.5031 31.3181 15.3251 31.2641 15.2131 31.1561C15.1051 31.0481 15.0511 30.9281 15.0511 30.7961C15.0511 30.6601 15.1051 30.5341 15.2131 30.4181C15.3211 30.3021 15.4691 30.2441 15.6571 30.2441C15.8091 30.2441 15.9651 30.2821 16.1251 30.3581C16.2851 30.4341 16.4351 30.5041 16.5751 30.5681C16.6151 30.5881 16.6571 30.6081 16.7011 30.6281C16.7451 30.6481 16.7891 30.6681 16.8331 30.6881C16.9651 30.5721 17.1071 30.4181 17.2591 30.2261C17.4111 30.0341 17.5691 29.8221 17.7331 29.5901C17.8971 29.3581 18.0631 29.1221 18.2311 28.8821C18.4031 28.6421 18.5751 28.4121 18.7471 28.1921C18.9191 27.9721 19.0911 27.7801 19.2631 27.6161C19.1431 27.5681 19.0151 27.5321 18.8791 27.5081C18.7431 27.4801 18.5971 27.4661 18.4411 27.4661C18.0211 27.4661 17.6571 27.5081 17.3491 27.5921C17.0451 27.6721 16.7891 27.7781 16.5811 27.9101C16.3771 28.0421 16.2151 28.1841 16.0951 28.3361C15.9791 28.4841 15.8991 28.6241 15.8551 28.7561C15.8391 28.8081 15.8271 28.8561 15.8191 28.9001C15.8111 28.9401 15.8071 28.9801 15.8071 29.0201C15.8071 29.1561 15.8491 29.2581 15.9331 29.3261C16.0171 29.3941 16.1251 29.4281 16.2571 29.4281C16.3931 29.4281 16.5451 29.3901 16.7131 29.3141C16.8811 29.2381 17.0531 29.1201 17.2291 28.9601C17.4051 28.7961 17.5671 28.5821 17.7151 28.3181C17.7351 28.2821 17.7651 28.2641 17.8051 28.2641C17.8371 28.2641 17.8631 28.2741 17.8831 28.2941C17.9071 28.3101 17.9191 28.3341 17.9191 28.3661C17.9191 28.3861 17.9131 28.4061 17.9011 28.4261C17.7411 28.7061 17.5631 28.9361 17.3671 29.1161C17.1751 29.2961 16.9811 29.4301 16.7851 29.5181C16.5931 29.6021 16.4131 29.6441 16.2451 29.6441C16.0571 29.6441 15.9011 29.5921 15.7771 29.4881C15.6531 29.3801 15.5911 29.2281 15.5911 29.0321C15.5911 28.9241 15.6111 28.8101 15.6511 28.6901C15.7031 28.5261 15.7951 28.3601 15.9271 28.1921C16.0631 28.0241 16.2431 27.8701 16.4671 27.7301C16.6951 27.5861 16.9711 27.4701 17.2951 27.3821C17.6231 27.2941 18.0051 27.2501 18.4411 27.2501C18.6331 27.2501 18.8111 27.2681 18.9751 27.3041C19.1431 27.3401 19.2971 27.3901 19.4371 27.4541C19.5571 27.3501 19.6751 27.2681 19.7911 27.2081C19.9111 27.1481 20.0251 27.1181 20.1331 27.1181C20.1691 27.1181 20.1951 27.1301 20.2111 27.1541C20.2271 27.1741 20.2351 27.1981 20.2351 27.2261C20.2351 27.2541 20.2271 27.2801 20.2111 27.3041C20.1951 27.3241 20.1691 27.3341 20.1331 27.3341C20.0051 27.3341 19.8411 27.4101 19.6411 27.5621C19.9571 27.7541 20.1931 28.0101 20.3491 28.3301C20.5091 28.6501 20.5891 28.9801 20.5891 29.3201C20.5891 29.6361 20.5251 29.9341 20.3971 30.2141C20.2491 30.5461 20.0071 30.8161 19.6711 31.0241C19.3351 31.2361 18.9371 31.3421 18.4771 31.3421ZM17.6131 30.9941C17.9131 31.0821 18.1991 31.1261 18.4711 31.1261C18.8991 31.1261 19.2611 31.0321 19.5571 30.8441C19.8571 30.6521 20.0731 30.4101 20.2051 30.1181C20.3211 29.8661 20.3791 29.6001 20.3791 29.3201C20.3791 29.0041 20.3031 28.7001 20.1511 28.4081C19.9991 28.1121 19.7711 27.8801 19.4671 27.7121C19.3431 27.8201 19.2171 27.9481 19.0891 28.0961C18.9651 28.2441 18.8431 28.4041 18.7231 28.5761C18.6351 28.7041 18.5231 28.8661 18.3871 29.0621C18.2511 29.2541 18.1051 29.4601 17.9491 29.6801C17.7931 29.8961 17.6351 30.1021 17.4751 30.2981C17.3191 30.4941 17.1771 30.6561 17.0491 30.7841C17.1411 30.8241 17.2331 30.8621 17.3251 30.8981C17.4211 30.9341 17.5171 30.9661 17.6131 30.9941ZM15.2671 30.7901C15.2671 30.8661 15.3031 30.9361 15.3751 31.0001C15.4511 31.0681 15.5731 31.1021 15.7411 31.1021C15.8851 31.1021 16.0391 31.0781 16.2031 31.0301C16.3671 30.9821 16.5131 30.9181 16.6411 30.8381C16.5451 30.7941 16.4491 30.7501 16.3531 30.7061C16.2571 30.6621 16.1591 30.6181 16.0591 30.5741C15.9991 30.5461 15.9471 30.5241 15.9031 30.5081C15.8591 30.4881 15.8211 30.4761 15.7891 30.4721C15.7691 30.4641 15.7491 30.4601 15.7291 30.4601C15.7091 30.4601 15.6891 30.4601 15.6691 30.4601C15.5451 30.4601 15.4471 30.4961 15.3751 30.5681C15.3031 30.6361 15.2671 30.7101 15.2671 30.7901Z" fill="url(#paint19_linear_141_33)"/>
<path d="M21.1586 31.0301C21.0466 31.0301 20.9626 30.9981 20.9066 30.9341C20.8546 30.8661 20.8286 30.7821 20.8286 30.6821C20.8286 30.5701 20.8606 30.4401 20.9246 30.2921C20.9926 30.1401 21.0806 29.9841 21.1886 29.8241C21.2966 29.6641 21.4146 29.5161 21.5426 29.3801C21.6746 29.2401 21.8066 29.1281 21.9386 29.0441C22.0706 28.9561 22.1926 28.9121 22.3046 28.9121C22.3806 28.9121 22.4546 28.9241 22.5266 28.9481C22.5986 28.9681 22.6566 29.0101 22.7006 29.0741C22.7486 29.1381 22.7726 29.2321 22.7726 29.3561C22.7726 29.4001 22.7606 29.4321 22.7366 29.4521C22.7126 29.4721 22.6906 29.4821 22.6706 29.4821C22.6266 29.4821 22.6046 29.4661 22.6046 29.4341C22.5846 29.3061 22.5426 29.2221 22.4786 29.1821C22.4186 29.1421 22.3606 29.1221 22.3046 29.1221C22.2246 29.1221 22.1306 29.1621 22.0226 29.2421C21.9146 29.3221 21.8046 29.4241 21.6926 29.5481C21.5806 29.6721 21.4746 29.8061 21.3746 29.9501C21.2786 30.0901 21.2006 30.2261 21.1406 30.3581C21.0806 30.4861 21.0506 30.5921 21.0506 30.6761C21.0506 30.7161 21.0566 30.7521 21.0686 30.7841C21.0846 30.8161 21.1086 30.8321 21.1406 30.8321C21.2006 30.8321 21.2786 30.8001 21.3746 30.7361C21.4706 30.6721 21.5726 30.5901 21.6806 30.4901C21.7926 30.3861 21.9026 30.2781 22.0106 30.1661C22.1186 30.0541 22.2166 29.9481 22.3046 29.8481C22.3926 29.7481 22.4606 29.6681 22.5086 29.6081C22.5326 29.5721 22.5626 29.5541 22.5986 29.5541C22.6266 29.5541 22.6526 29.5641 22.6766 29.5841C22.7006 29.6041 22.7126 29.6301 22.7126 29.6621C22.7126 29.6781 22.7066 29.6961 22.6946 29.7161C22.6666 29.7601 22.6326 29.8221 22.5926 29.9021C22.5566 29.9821 22.5186 30.0681 22.4786 30.1601C22.4426 30.2521 22.4106 30.3381 22.3826 30.4181C22.3586 30.4941 22.3466 30.5521 22.3466 30.5921C22.3466 30.6321 22.3606 30.6521 22.3886 30.6521C22.4086 30.6521 22.4326 30.6421 22.4606 30.6221C22.4926 30.6021 22.5206 30.5841 22.5446 30.5681C22.6406 30.4881 22.7326 30.4041 22.8206 30.3161C22.9086 30.2241 22.9886 30.1381 23.0606 30.0581C23.0766 30.0381 23.0966 30.0281 23.1206 30.0281C23.1406 30.0281 23.1586 30.0401 23.1746 30.0641C23.1946 30.0841 23.2046 30.1101 23.2046 30.1421C23.2046 30.1781 23.1946 30.2081 23.1746 30.2321C23.1106 30.3161 23.0266 30.4101 22.9226 30.5141C22.8186 30.6141 22.7266 30.6941 22.6466 30.7541C22.5946 30.7901 22.5326 30.8261 22.4606 30.8621C22.3926 30.8941 22.3266 30.9101 22.2626 30.9101C22.2146 30.9101 22.1746 30.8961 22.1426 30.8681C22.1106 30.8361 22.0946 30.7821 22.0946 30.7061C22.0946 30.6461 22.1046 30.5781 22.1246 30.5021C22.1446 30.4261 22.1686 30.3481 22.1966 30.2681C22.0846 30.3881 21.9646 30.5061 21.8366 30.6221C21.7086 30.7381 21.5846 30.8361 21.4646 30.9161C21.3486 30.9921 21.2466 31.0301 21.1586 31.0301Z" fill="url(#paint20_linear_141_33)"/>
<path d="M23.3785 31.1981C23.2305 31.1981 23.1185 31.1581 23.0425 31.0781C22.9665 31.0021 22.9285 30.9301 22.9285 30.8621C22.9285 30.7741 22.9725 30.7301 23.0605 30.7301C23.0805 30.7301 23.1005 30.7321 23.1205 30.7361C23.1405 30.7401 23.1625 30.7481 23.1865 30.7601C23.2705 30.8001 23.3605 30.8301 23.4565 30.8501C23.5565 30.8661 23.6525 30.8761 23.7445 30.8801C23.7805 30.8721 23.8145 30.8201 23.8465 30.7241C23.8785 30.6281 23.9025 30.5361 23.9185 30.4481C23.9305 30.3641 23.9365 30.2781 23.9365 30.1901C23.9365 30.0621 23.9265 29.9321 23.9065 29.8001C23.8865 29.6681 23.8685 29.5361 23.8525 29.4041C23.7445 29.5481 23.6305 29.6941 23.5105 29.8421C23.3905 29.9861 23.2785 30.1181 23.1745 30.2381C23.0705 30.3581 22.9825 30.4501 22.9105 30.5141C22.8945 30.5301 22.8745 30.5381 22.8505 30.5381C22.8225 30.5381 22.7985 30.5281 22.7785 30.5081C22.7585 30.4841 22.7485 30.4581 22.7485 30.4301C22.7485 30.3941 22.7625 30.3641 22.7905 30.3401C22.8265 30.3041 22.8845 30.2421 22.9645 30.1541C23.0445 30.0661 23.1345 29.9621 23.2345 29.8421C23.3385 29.7181 23.4425 29.5901 23.5465 29.4581C23.6505 29.3221 23.7465 29.1941 23.8345 29.0741C23.8385 29.0341 23.8425 28.9961 23.8465 28.9601C23.8505 28.9201 23.8565 28.8821 23.8645 28.8461C23.8925 28.7221 23.9445 28.6281 24.0205 28.5641C24.1005 28.4961 24.1705 28.4621 24.2305 28.4621C24.3025 28.4621 24.3385 28.5001 24.3385 28.5761C24.3385 28.6321 24.3085 28.7141 24.2485 28.8221C24.2205 28.8661 24.1905 28.9141 24.1585 28.9661C24.1265 29.0141 24.0905 29.0661 24.0505 29.1221C24.0505 29.2741 24.0645 29.4321 24.0925 29.5961C24.1205 29.7561 24.1365 29.8761 24.1405 29.9561C24.1445 29.9961 24.1465 30.0361 24.1465 30.0761C24.1505 30.1161 24.1525 30.1581 24.1525 30.2021C24.1525 30.3141 24.1425 30.4261 24.1225 30.5381C24.1065 30.6501 24.0725 30.7521 24.0205 30.8441C24.1285 30.8041 24.2405 30.7521 24.3565 30.6881C24.4725 30.6201 24.5725 30.5481 24.6565 30.4721C24.7365 30.4041 24.8105 30.3321 24.8785 30.2561C24.9465 30.1801 25.0105 30.1101 25.0705 30.0461C25.0865 30.0261 25.1065 30.0161 25.1305 30.0161C25.1505 30.0161 25.1685 30.0281 25.1845 30.0521C25.2045 30.0721 25.2145 30.0981 25.2145 30.1301C25.2145 30.1661 25.2045 30.1961 25.1845 30.2201C25.1245 30.3041 25.0405 30.3981 24.9325 30.5021C24.8285 30.6021 24.7365 30.6821 24.6565 30.7421C24.5525 30.8181 24.4245 30.8861 24.2725 30.9461C24.1205 31.0061 23.9645 31.0501 23.8045 31.0781C23.7245 31.1261 23.6305 31.1621 23.5225 31.1861C23.4945 31.1901 23.4685 31.1921 23.4445 31.1921C23.4205 31.1961 23.3985 31.1981 23.3785 31.1981Z" fill="url(#paint21_linear_141_33)"/>
<path d="M25.0523 31.0481C25.0243 31.0481 24.9983 31.0381 24.9743 31.0181C24.9503 31.0021 24.9403 30.9761 24.9443 30.9401C24.9603 30.7401 25.0163 30.5061 25.1123 30.2381C25.2123 29.9701 25.3343 29.6981 25.4783 29.4221C25.4303 29.4181 25.3823 29.4121 25.3343 29.4041C25.3063 29.3961 25.2843 29.3821 25.2683 29.3621C25.2523 29.3421 25.2443 29.3221 25.2443 29.3021C25.2443 29.2821 25.2503 29.2641 25.2623 29.2481C25.2783 29.2281 25.3003 29.2181 25.3283 29.2181C25.3523 29.2181 25.3783 29.2221 25.4063 29.2301C25.4383 29.2341 25.4723 29.2361 25.5083 29.2361C25.5323 29.2361 25.5543 29.2361 25.5743 29.2361C25.7143 28.9681 25.8623 28.7161 26.0183 28.4801C26.1743 28.2401 26.3183 28.0401 26.4503 27.8801C26.5303 27.7841 26.6143 27.6921 26.7023 27.6041C26.7903 27.5161 26.8803 27.4441 26.9723 27.3881C27.0683 27.3281 27.1603 27.2981 27.2483 27.2981C27.3643 27.2981 27.4443 27.3301 27.4883 27.3941C27.5363 27.4541 27.5603 27.5301 27.5603 27.6221C27.5603 27.7541 27.5243 27.8881 27.4523 28.0241C27.3923 28.1361 27.3023 28.2661 27.1823 28.4141C27.0623 28.5581 26.9223 28.7021 26.7623 28.8461C26.6063 28.9861 26.4363 29.1081 26.2523 29.2121C26.0723 29.3161 25.8883 29.3821 25.7003 29.4101C25.6163 29.5701 25.5403 29.7281 25.4723 29.8841C25.4083 30.0401 25.3523 30.1881 25.3043 30.3281C25.3363 30.2881 25.3683 30.2481 25.4003 30.2081C25.5043 30.0801 25.6083 29.9601 25.7123 29.8481C25.8163 29.7321 25.9483 29.6161 26.1083 29.5001C26.2683 29.3841 26.4103 29.2921 26.5343 29.2241C26.6623 29.1521 26.7463 29.1181 26.7863 29.1221C26.8703 29.1341 26.9123 29.1801 26.9123 29.2601C26.9123 29.3121 26.8963 29.3721 26.8643 29.4401C26.8363 29.5041 26.8063 29.5621 26.7743 29.6141C26.7423 29.6661 26.7203 29.7021 26.7083 29.7221C26.6643 29.7901 26.6043 29.8921 26.5283 30.0281C26.4523 30.1641 26.3883 30.2961 26.3363 30.4241C26.3203 30.4681 26.3043 30.5141 26.2883 30.5621C26.2763 30.6061 26.2703 30.6441 26.2703 30.6761C26.2703 30.7281 26.2923 30.7541 26.3363 30.7541C26.3763 30.7541 26.4343 30.7341 26.5103 30.6941C26.6063 30.6421 26.6943 30.5761 26.7743 30.4961C26.8583 30.4121 26.9303 30.3401 26.9903 30.2801C26.9943 30.2761 27.0123 30.2561 27.0443 30.2201C27.0803 30.1841 27.1143 30.1481 27.1463 30.1121C27.1823 30.0761 27.2003 30.0581 27.2003 30.0581C27.2163 30.0381 27.2363 30.0281 27.2603 30.0281C27.2803 30.0281 27.2983 30.0401 27.3143 30.0641C27.3343 30.0841 27.3443 30.1101 27.3443 30.1421C27.3443 30.1781 27.3343 30.2081 27.3143 30.2321C27.2543 30.3161 27.1723 30.4081 27.0683 30.5081C26.9643 30.6081 26.8723 30.6901 26.7923 30.7541C26.7083 30.8181 26.6223 30.8681 26.5343 30.9041C26.4463 30.9401 26.3663 30.9581 26.2943 30.9581C26.2183 30.9581 26.1543 30.9361 26.1023 30.8921C26.0543 30.8481 26.0303 30.7781 26.0303 30.6821C26.0303 30.5941 26.0503 30.4961 26.0903 30.3881C26.1463 30.2241 26.2283 30.0621 26.3363 29.9021C26.4483 29.7421 26.5403 29.5881 26.6123 29.4401C26.3203 29.6121 26.0503 29.8221 25.8023 30.0701C25.5543 30.3181 25.3423 30.5801 25.1663 30.8561C25.1623 30.8881 25.1583 30.9201 25.1543 30.9521C25.1543 30.9841 25.1423 31.0081 25.1183 31.0241C25.0983 31.0401 25.0763 31.0481 25.0523 31.0481ZM27.2423 27.5081C27.1663 27.5081 27.0763 27.5501 26.9723 27.6341C26.8683 27.7181 26.7603 27.8281 26.6483 27.9641C26.5403 28.0961 26.4323 28.2401 26.3243 28.3961C26.2163 28.5481 26.1183 28.6961 26.0303 28.8401C25.9423 28.9801 25.8723 29.0961 25.8203 29.1881C25.9803 29.1321 26.1523 29.0441 26.3363 28.9241C26.5203 28.8041 26.6943 28.6601 26.8583 28.4921C27.0223 28.3241 27.1583 28.1381 27.2663 27.9341C27.2983 27.8701 27.3203 27.8161 27.3323 27.7721C27.3483 27.7241 27.3563 27.6841 27.3563 27.6521C27.3563 27.5961 27.3423 27.5581 27.3143 27.5381C27.2903 27.5181 27.2663 27.5081 27.2423 27.5081Z" fill="url(#paint22_linear_141_33)"/>
<path d="M27.455 31.0901C27.311 31.0901 27.209 31.0541 27.149 30.9821C27.089 30.9061 27.059 30.8101 27.059 30.6941C27.059 30.5781 27.083 30.4461 27.131 30.2981C27.183 30.1461 27.247 29.9961 27.323 29.8481C27.435 29.6321 27.557 29.4001 27.689 29.1521C27.825 28.9041 27.985 28.6501 28.169 28.3901C28.229 28.3061 28.301 28.2061 28.385 28.0901C28.473 27.9701 28.571 27.8521 28.679 27.7361C28.791 27.6201 28.911 27.5241 29.039 27.4481C29.167 27.3681 29.299 27.3281 29.435 27.3281C29.547 27.3281 29.625 27.3521 29.669 27.4001C29.717 27.4481 29.741 27.5121 29.741 27.5921C29.741 27.6681 29.723 27.7561 29.687 27.8561C29.651 27.9561 29.603 28.0601 29.543 28.1681C29.455 28.3281 29.333 28.5021 29.177 28.6901C29.025 28.8741 28.853 29.0581 28.661 29.2421C28.469 29.4221 28.271 29.5861 28.067 29.7341C27.863 29.8781 27.667 29.9881 27.479 30.0641C27.427 30.1801 27.385 30.2921 27.353 30.4001C27.325 30.5081 27.311 30.6001 27.311 30.6761C27.311 30.8081 27.363 30.8741 27.467 30.8741C27.603 30.8741 27.731 30.8261 27.851 30.7301C27.971 30.6301 28.075 30.5061 28.163 30.3581C28.255 30.2061 28.321 30.0561 28.361 29.9081C28.349 29.8841 28.343 29.8601 28.343 29.8361C28.343 29.7881 28.361 29.7461 28.397 29.7101C28.437 29.6741 28.477 29.6561 28.517 29.6561C28.553 29.6561 28.583 29.6721 28.607 29.7041C28.635 29.7361 28.645 29.7921 28.637 29.8721C28.661 29.8881 28.681 29.8961 28.697 29.8961C28.709 29.9001 28.721 29.9041 28.733 29.9081C28.745 29.9081 28.757 29.9081 28.769 29.9081C28.861 29.9081 28.949 29.8801 29.033 29.8241C29.121 29.7681 29.181 29.7261 29.213 29.6981C29.257 29.6581 29.297 29.6381 29.333 29.6381C29.373 29.6381 29.393 29.6601 29.393 29.7041C29.393 29.7321 29.383 29.7641 29.363 29.8001C29.347 29.8321 29.317 29.8681 29.273 29.9081C29.125 30.0441 28.937 30.1121 28.709 30.1121C28.677 30.1121 28.647 30.1101 28.619 30.1061C28.595 30.0981 28.571 30.0901 28.547 30.0821C28.491 30.2381 28.409 30.3941 28.301 30.5501C28.197 30.7061 28.073 30.8361 27.929 30.9401C27.785 31.0401 27.627 31.0901 27.455 31.0901ZM28.259 28.6901C28.187 28.7901 28.111 28.9041 28.031 29.0321C27.955 29.1601 27.881 29.2901 27.809 29.4221C27.737 29.5501 27.675 29.6661 27.623 29.7701C27.787 29.6741 27.953 29.5581 28.121 29.4221C28.293 29.2861 28.457 29.1401 28.613 28.9841C28.769 28.8241 28.911 28.6621 29.039 28.4981C29.167 28.3301 29.273 28.1721 29.357 28.0241C29.453 27.8561 29.501 27.7281 29.501 27.6401C29.501 27.5721 29.469 27.5381 29.405 27.5381C29.309 27.5381 29.205 27.5841 29.093 27.6761C28.985 27.7641 28.877 27.8741 28.769 28.0061C28.661 28.1341 28.561 28.2621 28.469 28.3901C28.381 28.5141 28.311 28.6141 28.259 28.6901Z" fill="url(#paint23_linear_141_33)"/>
<path d="M29.6877 31.1021C29.5517 31.1021 29.4557 31.0641 29.3997 30.9881C29.3437 30.9081 29.3157 30.8101 29.3157 30.6941C29.3157 30.5981 29.3297 30.4941 29.3577 30.3821C29.3897 30.2661 29.4297 30.1521 29.4777 30.0401C29.4817 29.8841 29.5237 29.7301 29.6037 29.5781C29.6877 29.4261 29.7997 29.3001 29.9397 29.2001C30.0837 29.1001 30.2517 29.0501 30.4437 29.0501C30.6317 29.0501 30.7617 29.1041 30.8337 29.2121C30.9097 29.3201 30.9477 29.4481 30.9477 29.5961C30.9477 29.6841 30.9377 29.7741 30.9177 29.8661C30.8977 29.9541 30.8717 30.0381 30.8397 30.1181C30.8077 30.1981 30.7677 30.2801 30.7197 30.3641C30.6717 30.4441 30.6177 30.5241 30.5577 30.6041C30.6777 30.5841 30.7817 30.5461 30.8697 30.4901C30.9617 30.4301 31.0537 30.3481 31.1457 30.2441C31.2377 30.1401 31.3457 30.0081 31.4697 29.8481C31.4937 29.8201 31.5197 29.8061 31.5477 29.8061C31.5797 29.8061 31.6057 29.8161 31.6257 29.8361C31.6497 29.8561 31.6617 29.8821 31.6617 29.9141C31.6617 29.9381 31.6537 29.9601 31.6377 29.9801C31.5217 30.1401 31.4037 30.2841 31.2837 30.4121C31.1677 30.5401 31.0357 30.6401 30.8877 30.7121C30.7397 30.7841 30.5617 30.8201 30.3537 30.8201C30.2577 30.9041 30.1537 30.9721 30.0417 31.0241C29.9297 31.0761 29.8117 31.1021 29.6877 31.1021ZM30.0357 29.5481C29.9877 29.5841 29.9297 29.6561 29.8617 29.7641C29.7937 29.8721 29.7317 29.9901 29.6757 30.1181C29.6837 30.2421 29.7337 30.3541 29.8257 30.4541C29.9217 30.5501 30.0677 30.6041 30.2637 30.6161C30.4077 30.4761 30.5237 30.3121 30.6117 30.1241C30.6997 29.9321 30.7437 29.7601 30.7437 29.6081C30.7437 29.5041 30.7197 29.4201 30.6717 29.3561C30.6237 29.2921 30.5477 29.2601 30.4437 29.2601C30.3717 29.2601 30.3017 29.2721 30.2337 29.2961C30.1657 29.3201 30.1037 29.3521 30.0477 29.3921C30.0677 29.4121 30.0777 29.4361 30.0777 29.4641C30.0777 29.4961 30.0637 29.5241 30.0357 29.5481ZM29.5257 30.6821C29.5257 30.7461 29.5377 30.7981 29.5617 30.8381C29.5897 30.8741 29.6317 30.8921 29.6877 30.8921C29.8037 30.8921 29.9217 30.8561 30.0417 30.7841C29.9257 30.7561 29.8277 30.7121 29.7477 30.6521C29.6677 30.5881 29.6057 30.5161 29.5617 30.4361C29.5377 30.5321 29.5257 30.6141 29.5257 30.6821Z" fill="url(#paint24_linear_141_33)"/>
<path d="M31.436 31.0301C31.324 31.0301 31.24 30.9981 31.184 30.9341C31.132 30.8661 31.106 30.7821 31.106 30.6821C31.106 30.5701 31.138 30.4401 31.202 30.2921C31.27 30.1401 31.358 29.9841 31.466 29.8241C31.574 29.6641 31.692 29.5161 31.82 29.3801C31.952 29.2401 32.084 29.1281 32.216 29.0441C32.348 28.9561 32.47 28.9121 32.582 28.9121C32.658 28.9121 32.732 28.9241 32.804 28.9481C32.876 28.9681 32.934 29.0101 32.978 29.0741C33.026 29.1381 33.05 29.2321 33.05 29.3561C33.05 29.4001 33.038 29.4321 33.014 29.4521C32.99 29.4721 32.968 29.4821 32.948 29.4821C32.904 29.4821 32.882 29.4661 32.882 29.4341C32.862 29.3061 32.82 29.2221 32.756 29.1821C32.696 29.1421 32.638 29.1221 32.582 29.1221C32.502 29.1221 32.408 29.1621 32.3 29.2421C32.192 29.3221 32.082 29.4241 31.97 29.5481C31.858 29.6721 31.752 29.8061 31.652 29.9501C31.556 30.0901 31.478 30.2261 31.418 30.3581C31.358 30.4861 31.328 30.5921 31.328 30.6761C31.328 30.7161 31.334 30.7521 31.346 30.7841C31.362 30.8161 31.386 30.8321 31.418 30.8321C31.478 30.8321 31.556 30.8001 31.652 30.7361C31.748 30.6721 31.85 30.5901 31.958 30.4901C32.07 30.3861 32.18 30.2781 32.288 30.1661C32.396 30.0541 32.494 29.9481 32.582 29.8481C32.67 29.7481 32.738 29.6681 32.786 29.6081C32.81 29.5721 32.84 29.5541 32.876 29.5541C32.904 29.5541 32.93 29.5641 32.954 29.5841C32.978 29.6041 32.99 29.6301 32.99 29.6621C32.99 29.6781 32.984 29.6961 32.972 29.7161C32.944 29.7601 32.91 29.8221 32.87 29.9021C32.834 29.9821 32.796 30.0681 32.756 30.1601C32.72 30.2521 32.688 30.3381 32.66 30.4181C32.636 30.4941 32.624 30.5521 32.624 30.5921C32.624 30.6321 32.638 30.6521 32.666 30.6521C32.686 30.6521 32.71 30.6421 32.738 30.6221C32.77 30.6021 32.798 30.5841 32.822 30.5681C32.918 30.4881 33.01 30.4041 33.098 30.3161C33.186 30.2241 33.266 30.1381 33.338 30.0581C33.354 30.0381 33.374 30.0281 33.398 30.0281C33.418 30.0281 33.436 30.0401 33.452 30.0641C33.472 30.0841 33.482 30.1101 33.482 30.1421C33.482 30.1781 33.472 30.2081 33.452 30.2321C33.388 30.3161 33.304 30.4101 33.2 30.5141C33.096 30.6141 33.004 30.6941 32.924 30.7541C32.872 30.7901 32.81 30.8261 32.738 30.8621C32.67 30.8941 32.604 30.9101 32.54 30.9101C32.492 30.9101 32.452 30.8961 32.42 30.8681C32.388 30.8361 32.372 30.7821 32.372 30.7061C32.372 30.6461 32.382 30.5781 32.402 30.5021C32.422 30.4261 32.446 30.3481 32.474 30.2681C32.362 30.3881 32.242 30.5061 32.114 30.6221C31.986 30.7381 31.862 30.8361 31.742 30.9161C31.626 30.9921 31.524 31.0301 31.436 31.0301Z" fill="url(#paint25_linear_141_33)"/>
<path d="M34.3219 30.9641C34.2499 30.9641 34.1899 30.9441 34.1419 30.9041C34.0979 30.8641 34.0759 30.8081 34.0759 30.7361C34.0759 30.5841 34.1139 30.4321 34.1899 30.2801C34.2659 30.1241 34.3519 29.9721 34.4479 29.8241C34.5479 29.6721 34.6299 29.5321 34.6939 29.4041C34.6299 29.4481 34.5579 29.4801 34.4779 29.5001C34.3979 29.5201 34.3199 29.5301 34.2439 29.5301C34.1359 29.5301 34.0519 29.5161 33.9919 29.4881C33.9159 29.6201 33.8279 29.7541 33.7279 29.8901C33.6279 30.0221 33.5299 30.1421 33.4339 30.2501C33.3419 30.3581 33.2639 30.4401 33.1999 30.4961C33.1719 30.5201 33.1439 30.5321 33.1159 30.5321C33.0879 30.5321 33.0639 30.5221 33.0439 30.5021C33.0239 30.4821 33.0139 30.4601 33.0139 30.4361C33.0139 30.4161 33.0219 30.3981 33.0379 30.3821C33.1099 30.3061 33.1939 30.2081 33.2899 30.0881C33.3899 29.9681 33.4879 29.8401 33.5839 29.7041C33.6839 29.5681 33.7659 29.4421 33.8299 29.3261C33.8259 29.2461 33.8359 29.1561 33.8599 29.0561C33.8879 28.9561 33.9239 28.8601 33.9679 28.7681C34.0159 28.6761 34.0679 28.6001 34.1239 28.5401C34.1799 28.4761 34.2379 28.4441 34.2979 28.4441C34.3619 28.4441 34.3939 28.4821 34.3939 28.5581C34.3939 28.6221 34.3739 28.7041 34.3339 28.8041C34.2979 28.9041 34.2539 29.0021 34.2019 29.0981C34.1539 29.1901 34.1119 29.2661 34.0759 29.3261C34.1279 29.3421 34.1819 29.3501 34.2379 29.3501C34.3339 29.3501 34.4179 29.3321 34.4899 29.2961C34.5619 29.2561 34.6259 29.2181 34.6819 29.1821C34.7379 29.1421 34.7859 29.1221 34.8259 29.1221C34.8779 29.1221 34.9119 29.1361 34.9279 29.1641C34.9479 29.1881 34.9579 29.2201 34.9579 29.2601C34.9579 29.3361 34.9379 29.4201 34.8979 29.5121C34.8579 29.6001 34.8279 29.6561 34.8079 29.6801C34.7799 29.7241 34.7379 29.7901 34.6819 29.8781C34.6259 29.9621 34.5699 30.0521 34.5139 30.1481C34.4579 30.2441 34.4119 30.3361 34.3759 30.4241C34.3599 30.4681 34.3439 30.5141 34.3279 30.5621C34.3159 30.6061 34.3099 30.6441 34.3099 30.6761C34.3099 30.7281 34.3319 30.7541 34.3759 30.7541C34.4159 30.7541 34.4739 30.7341 34.5499 30.6941C34.6459 30.6421 34.7339 30.5761 34.8139 30.4961C34.8979 30.4121 34.9699 30.3401 35.0299 30.2801C35.0339 30.2761 35.0519 30.2561 35.0839 30.2201C35.1199 30.1841 35.1539 30.1481 35.1859 30.1121C35.2219 30.0761 35.2399 30.0581 35.2399 30.0581C35.2559 30.0381 35.2759 30.0281 35.2999 30.0281C35.3199 30.0281 35.3379 30.0401 35.3539 30.0641C35.3739 30.0841 35.3839 30.1101 35.3839 30.1421C35.3839 30.1781 35.3739 30.2081 35.3539 30.2321C35.2939 30.3161 35.2119 30.4081 35.1079 30.5081C35.0039 30.6081 34.9119 30.6901 34.8319 30.7541C34.7479 30.8181 34.6619 30.8701 34.5739 30.9101C34.4899 30.9461 34.4059 30.9641 34.3219 30.9641Z" fill="url(#paint26_linear_141_33)"/>
<path d="M35.35 31.0301C35.238 31.0301 35.154 30.9981 35.098 30.9341C35.046 30.8661 35.02 30.7821 35.02 30.6821C35.02 30.5701 35.052 30.4401 35.116 30.2921C35.184 30.1401 35.272 29.9841 35.38 29.8241C35.488 29.6641 35.606 29.5161 35.734 29.3801C35.866 29.2401 35.998 29.1281 36.13 29.0441C36.262 28.9561 36.384 28.9121 36.496 28.9121C36.576 28.9121 36.654 28.9261 36.73 28.9541C36.81 28.9781 36.87 29.0301 36.91 29.1101C37.01 28.8781 37.13 28.6481 37.27 28.4201C37.41 28.1881 37.554 27.9801 37.702 27.7961C37.854 27.6121 37.998 27.4741 38.134 27.3821C38.234 27.3141 38.324 27.2801 38.404 27.2801C38.468 27.2801 38.518 27.3021 38.554 27.3461C38.594 27.3861 38.614 27.4481 38.614 27.5321C38.614 27.6921 38.57 27.8621 38.482 28.0421C38.398 28.2221 38.286 28.4021 38.146 28.5821C38.006 28.7621 37.854 28.9381 37.69 29.1101C37.53 29.2781 37.374 29.4361 37.222 29.5841C37.07 29.7281 36.938 29.8541 36.826 29.9621C36.762 30.0701 36.7 30.1961 36.64 30.3401C36.584 30.4801 36.556 30.5981 36.556 30.6941C36.556 30.8021 36.598 30.8561 36.682 30.8561C36.75 30.8561 36.852 30.8241 36.988 30.7601C37.128 30.6921 37.264 30.6001 37.396 30.4841C37.476 30.4161 37.55 30.3441 37.618 30.2681C37.686 30.1921 37.75 30.1221 37.81 30.0581C37.826 30.0381 37.846 30.0281 37.87 30.0281C37.89 30.0281 37.908 30.0401 37.924 30.0641C37.944 30.0841 37.954 30.1101 37.954 30.1421C37.954 30.1781 37.944 30.2081 37.924 30.2321C37.864 30.3161 37.78 30.4101 37.672 30.5141C37.568 30.6141 37.476 30.6941 37.396 30.7541C37.244 30.8661 37.08 30.9501 36.904 31.0061C36.796 31.0421 36.7 31.0601 36.616 31.0601C36.396 31.0601 36.286 30.9501 36.286 30.7301C36.286 30.6381 36.306 30.5341 36.346 30.4181C36.346 30.4141 36.348 30.4101 36.352 30.4061C36.228 30.5101 36.1 30.6101 35.968 30.7061C35.84 30.8021 35.72 30.8801 35.608 30.9401C35.496 31.0001 35.41 31.0301 35.35 31.0301ZM36.922 29.5541C36.962 29.5221 37.032 29.4581 37.132 29.3621C37.232 29.2661 37.346 29.1521 37.474 29.0201C37.606 28.8841 37.736 28.7381 37.864 28.5821C37.992 28.4261 38.104 28.2701 38.2 28.1141C38.296 27.9581 38.362 27.8121 38.398 27.6761C38.402 27.6601 38.404 27.6401 38.404 27.6161C38.404 27.5561 38.38 27.5261 38.332 27.5261C38.272 27.5261 38.202 27.5661 38.122 27.6461C37.966 27.7981 37.814 27.9821 37.666 28.1981C37.522 28.4101 37.386 28.6341 37.258 28.8701C37.134 29.1021 37.022 29.3301 36.922 29.5541ZM35.332 30.8321C35.388 30.8321 35.46 30.8061 35.548 30.7541C35.64 30.7021 35.738 30.6361 35.842 30.5561C35.946 30.4761 36.048 30.3921 36.148 30.3041C36.252 30.2161 36.344 30.1341 36.424 30.0581C36.504 29.9821 36.564 29.9241 36.604 29.8841L36.784 29.3741C36.756 29.2701 36.714 29.2021 36.658 29.1701C36.602 29.1381 36.548 29.1221 36.496 29.1221C36.416 29.1221 36.322 29.1621 36.214 29.2421C36.106 29.3221 35.996 29.4241 35.884 29.5481C35.772 29.6721 35.666 29.8061 35.566 29.9501C35.47 30.0901 35.392 30.2261 35.332 30.3581C35.272 30.4861 35.242 30.5921 35.242 30.6761C35.242 30.7161 35.248 30.7521 35.26 30.7841C35.276 30.8161 35.3 30.8321 35.332 30.8321Z" fill="url(#paint27_linear_141_33)"/>
<defs>
<linearGradient id="paint0_linear_141_33" x1="-2.30303" y1="28" x2="44.3257" y2="28.8286" gradientUnits="userSpaceOnUse">
<stop stop-color="#C2882B"/>
<stop offset="1" stop-color="#FFDD43"/>
</linearGradient>
<linearGradient id="paint1_linear_141_33" x1="-2.30303" y1="28" x2="44.3257" y2="28.8286" gradientUnits="userSpaceOnUse">
<stop stop-color="#C2882B"/>
<stop offset="1" stop-color="#FFDD43"/>
</linearGradient>
<linearGradient id="paint2_linear_141_33" x1="-2.30303" y1="28" x2="44.3257" y2="28.8286" gradientUnits="userSpaceOnUse">
<stop stop-color="#C2882B"/>
<stop offset="1" stop-color="#FFDD43"/>
</linearGradient>
<linearGradient id="paint3_linear_141_33" x1="-2.30303" y1="28" x2="44.3257" y2="28.8286" gradientUnits="userSpaceOnUse">
<stop stop-color="#C2882B"/>
<stop offset="1" stop-color="#FFDD43"/>
</linearGradient>
<linearGradient id="paint4_linear_141_33" x1="-2.30303" y1="28" x2="44.3257" y2="28.8286" gradientUnits="userSpaceOnUse">
<stop stop-color="#C2882B"/>
<stop offset="1" stop-color="#FFDD43"/>
</linearGradient>
<linearGradient id="paint5_linear_141_33" x1="19.535" y1="0.37207" x2="19.535" y2="32.0021" gradientUnits="userSpaceOnUse">
<stop stop-color="#FFDD43"/>
<stop offset="0.0001" stop-color="#C2882B"/>
<stop offset="1" stop-color="#C2882B" stop-opacity="0"/>
<stop offset="1" stop-color="#FFDD43"/>
</linearGradient>
<linearGradient id="paint6_linear_141_33" x1="19.535" y1="0.37207" x2="19.535" y2="32.0021" gradientUnits="userSpaceOnUse">
<stop stop-color="#FFDD43"/>
<stop offset="0.0001" stop-color="#C2882B"/>
<stop offset="1" stop-color="#C2882B" stop-opacity="0"/>
<stop offset="1" stop-color="#FFDD43"/>
</linearGradient>
<linearGradient id="paint7_linear_141_33" x1="19.535" y1="0.37207" x2="19.535" y2="32.0021" gradientUnits="userSpaceOnUse">
<stop stop-color="#FFDD43"/>
<stop offset="0.0001" stop-color="#C2882B"/>
<stop offset="1" stop-color="#C2882B" stop-opacity="0"/>
<stop offset="1" stop-color="#FFDD43"/>
</linearGradient>
<linearGradient id="paint8_linear_141_33" x1="-33.123" y1="3.53508" x2="47.9477" y2="8.37863" gradientUnits="userSpaceOnUse">
<stop stop-color="#C2882B"/>
<stop offset="1" stop-color="#FFDD43"/>
</linearGradient>
<linearGradient id="paint9_linear_141_33" x1="-33.123" y1="3.53508" x2="47.9477" y2="8.37863" gradientUnits="userSpaceOnUse">
<stop stop-color="#C2882B"/>
<stop offset="1" stop-color="#FFDD43"/>
</linearGradient>
<linearGradient id="paint10_linear_141_33" x1="-33.123" y1="3.53508" x2="47.9477" y2="8.37863" gradientUnits="userSpaceOnUse">
<stop stop-color="#C2882B"/>
<stop offset="1" stop-color="#FFDD43"/>
</linearGradient>
<linearGradient id="paint11_linear_141_33" x1="-33.123" y1="3.53508" x2="47.9477" y2="8.37863" gradientUnits="userSpaceOnUse">
<stop stop-color="#C2882B"/>
<stop offset="1" stop-color="#FFDD43"/>
</linearGradient>
<linearGradient id="paint12_linear_141_33" x1="-33.123" y1="3.53508" x2="47.9477" y2="8.37863" gradientUnits="userSpaceOnUse">
<stop stop-color="#C2882B"/>
<stop offset="1" stop-color="#FFDD43"/>
</linearGradient>
<linearGradient id="paint13_linear_141_33" x1="-33.123" y1="3.53508" x2="47.9477" y2="8.37863" gradientUnits="userSpaceOnUse">
<stop stop-color="#C2882B"/>
<stop offset="1" stop-color="#FFDD43"/>
</linearGradient>
<linearGradient id="paint14_linear_141_33" x1="-2.30303" y1="28" x2="44.3257" y2="28.8286" gradientUnits="userSpaceOnUse">
<stop stop-color="#C2882B"/>
<stop offset="1" stop-color="#FFDD43"/>
</linearGradient>
<linearGradient id="paint15_linear_141_33" x1="-2.30303" y1="28" x2="44.3257" y2="28.8286" gradientUnits="userSpaceOnUse">
<stop stop-color="#C2882B"/>
<stop offset="1" stop-color="#FFDD43"/>
</linearGradient>
<linearGradient id="paint16_linear_141_33" x1="-2.30303" y1="28" x2="44.3257" y2="28.8286" gradientUnits="userSpaceOnUse">
<stop stop-color="#C2882B"/>
<stop offset="1" stop-color="#FFDD43"/>
</linearGradient>
<linearGradient id="paint17_linear_141_33" x1="-2.30303" y1="28" x2="44.3257" y2="28.8286" gradientUnits="userSpaceOnUse">
<stop stop-color="#C2882B"/>
<stop offset="1" stop-color="#FFDD43"/>
</linearGradient>
<linearGradient id="paint18_linear_141_33" x1="-2.30303" y1="28" x2="44.3257" y2="28.8286" gradientUnits="userSpaceOnUse">
<stop stop-color="#C2882B"/>
<stop offset="1" stop-color="#FFDD43"/>
</linearGradient>
<linearGradient id="paint19_linear_141_33" x1="-2.30303" y1="28" x2="44.3257" y2="28.8286" gradientUnits="userSpaceOnUse">
<stop stop-color="#C2882B"/>
<stop offset="1" stop-color="#FFDD43"/>
</linearGradient>
<linearGradient id="paint20_linear_141_33" x1="-2.30303" y1="28" x2="44.3257" y2="28.8286" gradientUnits="userSpaceOnUse">
<stop stop-color="#C2882B"/>
<stop offset="1" stop-color="#FFDD43"/>
</linearGradient>
<linearGradient id="paint21_linear_141_33" x1="-2.30303" y1="28" x2="44.3257" y2="28.8286" gradientUnits="userSpaceOnUse">
<stop stop-color="#C2882B"/>
<stop offset="1" stop-color="#FFDD43"/>
</linearGradient>
<linearGradient id="paint22_linear_141_33" x1="-2.30303" y1="28" x2="44.3257" y2="28.8286" gradientUnits="userSpaceOnUse">
<stop stop-color="#C2882B"/>
<stop offset="1" stop-color="#FFDD43"/>
</linearGradient>
<linearGradient id="paint23_linear_141_33" x1="-2.30303" y1="28" x2="44.3257" y2="28.8286" gradientUnits="userSpaceOnUse">
<stop stop-color="#C2882B"/>
<stop offset="1" stop-color="#FFDD43"/>
</linearGradient>
<linearGradient id="paint24_linear_141_33" x1="-2.30303" y1="28" x2="44.3257" y2="28.8286" gradientUnits="userSpaceOnUse">
<stop stop-color="#C2882B"/>
<stop offset="1" stop-color="#FFDD43"/>
</linearGradient>
<linearGradient id="paint25_linear_141_33" x1="-2.30303" y1="28" x2="44.3257" y2="28.8286" gradientUnits="userSpaceOnUse">
<stop stop-color="#C2882B"/>
<stop offset="1" stop-color="#FFDD43"/>
</linearGradient>
<linearGradient id="paint26_linear_141_33" x1="-2.30303" y1="28" x2="44.3257" y2="28.8286" gradientUnits="userSpaceOnUse">
<stop stop-color="#C2882B"/>
<stop offset="1" stop-color="#FFDD43"/>
</linearGradient>
<linearGradient id="paint27_linear_141_33" x1="-2.30303" y1="28" x2="44.3257" y2="28.8286" gradientUnits="userSpaceOnUse">
<stop stop-color="#C2882B"/>
<stop offset="1" stop-color="#FFDD43"/>
</linearGradient>
</defs>
</svg>
